<?xml version="1.0" encoding="utf-8"?>
<!-- Generator: Adobe Illustrator 16.0.0, SVG Export Plug-In . SVG Version: 6.00 Build 0)  -->
<!DOCTYPE svg PUBLIC "-//W3C//DTD SVG 1.1//EN" "http://www.w3.org/Graphics/SVG/1.1/DTD/svg11.dtd">
<svg version="1.1" id="Livello_1" xmlns="http://www.w3.org/2000/svg" xmlns:xlink="http://www.w3.org/1999/xlink" x="0px" y="0px"
	 width="580px" height="580px" viewBox="0 0 580 580" enable-background="new 0 0 580 580" xml:space="preserve">
<path fill="#E81A1A" stroke="#000000" stroke-width="2.8346" stroke-miterlimit="10" d="M130.449,332.849
	c2.014,0,30.762-74.125,30.762-74.125l59.183-71.278l30.762-27.357l45.17-26.59l46.067,31.119c0,0,48.563,40.995,54.104,48.881
	c11.696,16.645,24.778,40.77,24.778,40.77l28.14,44.476l18.354,66.604l6.536,36.685l2.595,54.468H453.5H294.465l-175.51-5
	l2.431-67.609L130.449,332.849"/>
<circle fill="none" stroke="#000000" stroke-width="28.3465" stroke-miterlimit="10" cx="294.465" cy="313.981" r="77.953"/>
<g>
	<path fill="none" stroke="#000000" stroke-width="28.3465" stroke-miterlimit="10" d="M117.955,468.552
		c0-175.383,37.566-237.11,178.372-344.409"/>
	<path fill="none" stroke="#000000" stroke-width="28.3465" stroke-miterlimit="10" d="M476.955,469.5
		c1.893-223.374-133.15-300.205-191-352"/>
</g>
<rect x="113.5" y="444.5" stroke="#000000" stroke-width="2.8346" stroke-miterlimit="10" width="371" height="24"/>
<rect y="309.094" stroke="#000000" stroke-width="0.7087" stroke-miterlimit="10" width="580" height="15.813"/>
<rect x="287.5" y="0" stroke="#000000" stroke-width="0.7087" stroke-miterlimit="10" width="15.5" height="580"/>
</svg>
