<?xml version="1.0" encoding="utf-8"?>
<!-- Generator: Adobe Illustrator 16.0.0, SVG Export Plug-In . SVG Version: 6.00 Build 0)  -->
<!DOCTYPE svg PUBLIC "-//W3C//DTD SVG 1.1//EN" "http://www.w3.org/Graphics/SVG/1.1/DTD/svg11.dtd">
<svg version="1.1" id="Layer_1" xmlns="http://www.w3.org/2000/svg" xmlns:xlink="http://www.w3.org/1999/xlink" x="0px" y="0px"
	 width="580px" height="580px" viewBox="0 0 580 580" enable-background="new 0 0 580 580" xml:space="preserve">
<ellipse fill="#FCFCFC" stroke="#000000" stroke-width="11.3386" stroke-miterlimit="10" cx="293.311" cy="293" rx="174.079" ry="173.079"/>
<rect x="286.838" stroke="#000000" stroke-width="0.7087" stroke-miterlimit="10" width="15.813" height="580"/>
<rect x="1" y="287.094" stroke="#000000" stroke-width="0.7087" stroke-miterlimit="10" width="580" height="15.813"/>
<path fill="none" stroke="#F90808" stroke-width="20" stroke-miterlimit="10" d="M142.596,368.388"/>
<path fill="none" stroke="#F90808" stroke-width="20" stroke-miterlimit="10" d="M347.398,132.813"/>
<path fill="none" stroke="#F90808" stroke-width="20" stroke-miterlimit="10" d="M439.5,216.5"/>
<path fill="none" stroke="#F90808" stroke-width="20" stroke-miterlimit="10" d="M238.318,455.017"/>
<g>
	<path fill="none" stroke="#F70808" stroke-width="20" stroke-miterlimit="10" d="M195.509,385.428
		c-17.569,0-34.519-2.661-50.474-7.596c19.916,35.354,51.955,62.921,90.464,77.005c-10.978-21.356-17.614-45.322-18.754-70.726
		C209.786,384.977,202.7,385.428,195.509,385.428z"/>
	<path fill="none" stroke="#F70808" stroke-width="20" stroke-miterlimit="10" d="M387.697,204.572
		c20.592,0,40.333,3.651,58.619,10.34c-20.893-40.644-57.479-71.84-101.727-85.521c12.83,22.774,20.626,48.778,21.868,76.498
		C373.42,205.023,380.505,204.572,387.697,204.572z"/>
	<path fill="none" stroke="#F70808" stroke-width="20" stroke-miterlimit="10" d="M216.559,376.262c0,2.633,0.069,5.247,0.186,7.852
		c84.494-10.492,149.901-82.77,149.901-170.376c0-2.631-0.068-5.247-0.188-7.85C281.966,216.38,216.559,288.656,216.559,376.262z"/>
</g>
<ellipse fill="none" stroke="#000000" stroke-width="25" stroke-miterlimit="10" cx="290.311" cy="290" rx="174.079" ry="173.079"/>
</svg>
